# xmcd
#
# Track frame offsets:
# 150
# 15293
# 30436
# 39931
# 49505
# 65493
# 80629
# 93652
# 105675
# 120785
# 134080
# 148907
# 164014
# 178704
# 192453
# 204905
# 217589
#
# Disc length: 3080 seconds
#
#
# Revision: 0
# Processed by: cddbd v1.4PL0 Copyright (c) Steve Scherf et al.
# Submitted via: FreeRIP 2.51 
#
DISCID=e50c0611
DTITLE=Muddy Waters - Louisiana Blues
DYEAR=2002
DGENRE=Blues
TTITLE0=I be bound to write to you
TTITLE1=You're gonna miss me when i'm gone
TTITLE2=You got to take sick and die some of these days
TTITLE3=Why don't you live so God can use you
TTITLE4=Country Blues
TTITLE5=32-20 Blues
TTITLE6=Louisiana Blues
TTITLE7=Long distance call
TTITLE8=Honey Bee
TTITLE9=She Moves Me
TTITLE10=Still a fool
TTITLE11=Standing Around Crying
TTITLE12=Baby Please Don't Go
TTITLE13=I want you to love me
TTITLE14=I'm your hoochie coochie
TTITLE15=I just want to make love to you
TTITLE16=I'm ready
EXTD=Past Perfect Silver Line Serie
EXTT0=
EXTT1=
EXTT2=
EXTT3=
EXTT4=
EXTT5=
EXTT6=
EXTT7=
EXTT8=
EXTT9=
EXTT10=
EXTT11=
EXTT12=
EXTT13=
EXTT14=
EXTT15=
EXTT16=
PLAYORDER=
